<?xml version="1.0" encoding="UTF-8"?>
<!DOCTYPE svg PUBLIC "-//W3C//DTD SVG 1.1//EN" "http://www.w3.org/Graphics/SVG/1.1/DTD/svg11.dtd">
<svg xmlns="http://www.w3.org/2000/svg" version="1.1" width="200px" height="190px" style="shape-rendering:geometricPrecision; text-rendering:geometricPrecision; image-rendering:optimizeQuality; fill-rule:evenodd; clip-rule:evenodd" xmlns:xlink="http://www.w3.org/1999/xlink">
<g><path style="opacity:0.989" fill="#337ab6" d="M 112.5,189.5 C 103.833,189.5 95.1667,189.5 86.5,189.5C 43.9632,180.797 18.1298,155.13 9,112.5C 8.50002,77.8349 8.33335,43.1683 8.5,8.5C 43.1683,8.33335 77.8349,8.50002 112.5,9C 155.216,17.3825 181.049,42.8825 190,85.5C 194.041,129.597 176.541,161.763 137.5,182C 129.277,185.3 120.943,187.8 112.5,189.5 Z"/></g>
<g><path style="opacity:1" fill="#8dc572" d="M 25.5,24.5 C 52.8354,24.3334 80.1687,24.5 107.5,25C 143.768,31.2679 165.601,52.4345 173,88.5C 174.774,128.471 156.941,155.304 119.5,169C 82.2625,176.957 53.7625,164.791 34,132.5C 30.1923,124.884 27.5257,116.884 26,108.5C 25.5,80.502 25.3334,52.502 25.5,24.5 Z"/></g>
<g><path style="opacity:1" fill="#fafcf8" d="M 114.5,75.5 C 116.833,75.5 119.167,75.5 121.5,75.5C 123.067,86.904 125.067,98.2374 127.5,109.5C 130.318,98.5794 132.818,87.5794 135,76.5C 137.957,74.9226 140.624,75.2559 143,77.5C 145.201,88.6362 147.868,99.6362 151,110.5C 152.642,98.8426 154.142,87.1759 155.5,75.5C 157.833,75.5 160.167,75.5 162.5,75.5C 160.499,89.1688 158.499,102.835 156.5,116.5C 153.167,116.5 149.833,116.5 146.5,116.5C 144.432,105.434 141.932,94.4341 139,83.5C 136.252,94.4069 134.085,105.407 132.5,116.5C 128.649,117.029 125.149,116.362 122,114.5C 119.388,101.504 116.888,88.5042 114.5,75.5 Z"/></g>
<g><path style="opacity:1" fill="#fafcf9" d="M 87.5,76.5 C 94.8333,76.5 102.167,76.5 109.5,76.5C 109.5,78.1667 109.5,79.8333 109.5,81.5C 104.167,81.5 98.8333,81.5 93.5,81.5C 93.5,85.5 93.5,89.5 93.5,93.5C 98.1667,93.5 102.833,93.5 107.5,93.5C 107.5,95.5 107.5,97.5 107.5,99.5C 102.833,99.5 98.1667,99.5 93.5,99.5C 93.5,103.5 93.5,107.5 93.5,111.5C 98.8437,111.334 104.177,111.501 109.5,112C 110.406,113.699 110.739,115.533 110.5,117.5C 102.833,117.5 95.1667,117.5 87.5,117.5C 87.5,103.833 87.5,90.1667 87.5,76.5 Z"/></g>
<g><path style="opacity:1" fill="#fafcf9" d="M 51.5,76.5 C 59.253,76.1039 66.9196,76.6039 74.5,78C 76.0488,79.214 77.2155,80.714 78,82.5C 78.6667,92.5 78.6667,102.5 78,112.5C 76.8906,114.815 75.0573,116.315 72.5,117C 65.5079,117.5 58.5079,117.666 51.5,117.5C 51.5,103.833 51.5,90.1667 51.5,76.5 Z"/></g>
<g><path style="opacity:1" fill="#92c778" d="M 57.5,82.5 C 70.5738,79.0743 75.5738,83.9077 72.5,97C 72.6119,101.944 72.1119,106.777 71,111.5C 66.5986,112.467 62.0986,112.8 57.5,112.5C 57.5,102.5 57.5,92.5 57.5,82.5 Z"/></g>
<g><path style="opacity:1" fill="#fdfefc" d="M 37.5,85.5 C 39.5,85.5 41.5,85.5 43.5,85.5C 43.5,88.8333 43.5,92.1667 43.5,95.5C 41.5,95.5 39.5,95.5 37.5,95.5C 37.5,92.1667 37.5,88.8333 37.5,85.5 Z"/></g>
<g><path style="opacity:1" fill="#f4f9f1" d="M 37.5,108.5 C 39.8333,108.5 42.1667,108.5 44.5,108.5C 44.6646,111.518 44.498,114.518 44,117.5C 41.9592,118.423 39.7925,118.756 37.5,118.5C 37.5,115.167 37.5,111.833 37.5,108.5 Z"/></g>
</svg>
